<svg width="24" height="24" viewBox="0 0 24 24" fill="none" xmlns="http://www.w3.org/2000/svg">
<path d="M13.1526 12.5L18.7613 6.8911C18.9155 6.7367 19.0007 6.53071 19.0009 6.31106C19.0009 6.09129 18.9158 5.88506 18.7613 5.7309L18.2698 5.23953C18.1153 5.08476 17.9093 5 17.6894 5C17.4698 5 17.2639 5.08476 17.1093 5.23953L11.5007 10.8481L5.89182 5.23953C5.73755 5.08476 5.53144 5 5.31167 5C5.09214 5 4.88603 5.08476 4.73175 5.23953L4.24001 5.7309C3.92 6.05092 3.92 6.57144 4.24001 6.8911L9.84877 12.5L4.24001 18.1087C4.08561 18.2633 4.00061 18.4693 4.00061 18.6889C4.00061 18.9086 4.08561 19.1146 4.24001 19.2691L4.73163 19.7605C4.88591 19.9151 5.09214 20 5.31154 20C5.53131 20 5.73742 19.9151 5.8917 19.7605L11.5006 14.1518L17.1092 19.7605C17.2637 19.9151 17.4697 20 17.6893 20H17.6895C17.9091 20 18.1151 19.9151 18.2697 19.7605L18.7611 19.2691C18.9154 19.1147 19.0006 18.9086 19.0006 18.6889C19.0006 18.4693 18.9154 18.2633 18.7611 18.1088L13.1526 12.5Z" fill="#48423D"/>
</svg>
