<svg width="378" height="27" viewBox="0 0 378 27" fill="none" xmlns="http://www.w3.org/2000/svg">
<g clip-path="url(#clip0_11_368)">
<path d="M0 2.39001H23.6346V4.9451H0V2.39001ZM0 7.1808H23.6346V9.73589H0V7.1808ZM0 11.9716H23.6346V14.5267H0V11.9716ZM4.4714 17.1967H5.69785V23.5461H4.72052V18.6787L4.76524 18.9598L3.37272 22.7285H2.55509L1.14979 19.0747L1.1945 18.6787V23.5206H0.217182V17.1967H1.41807L2.95751 21.4318L4.4714 17.1967ZM8.22738 18.1996V19.8987H10.8719V20.8952H8.22738V22.5497H11.351V23.5461H7.18618V17.1967H11.351V18.1996H8.22738ZM12.5263 17.1967H13.6633L16.3973 22.0833L16.2951 22.1983V17.1967H17.3043V23.5461H16.1609L13.4142 18.7298L13.5228 18.6148V23.5461H12.5263V17.1967ZM19.7444 23.3353C19.4057 23.1499 19.1349 22.8613 18.9715 22.5113C18.7833 22.1124 18.6914 21.6748 18.7032 21.2338V17.1967H19.7444V21.2785C19.7228 21.6302 19.8397 21.9765 20.0702 22.243C20.1882 22.3595 20.3294 22.4498 20.4845 22.5081C20.6397 22.5665 20.8054 22.5915 20.9709 22.5816C21.1383 22.5917 21.306 22.5668 21.4633 22.5085C21.6205 22.4502 21.7639 22.3598 21.8843 22.243C22.1148 21.9765 22.2318 21.6302 22.2101 21.2785V17.1967H23.2513V21.2338C23.2671 21.6737 23.1796 22.1113 22.9958 22.5113C22.825 22.8534 22.5528 23.1344 22.2165 23.3162C21.835 23.5095 21.4111 23.6039 20.9837 23.5908C20.5557 23.6109 20.1296 23.5231 19.7444 23.3353Z" fill="#575757"/>
</g>
<g clip-path="url(#clip1_11_368)">
<path d="M66.4265 21.1096L60.0172 14.7003C60.9108 13.4843 61.3961 12.0166 61.4036 10.5077C61.4086 9.06713 60.9856 7.6576 60.1883 6.45779C59.3911 5.25799 58.2555 4.32197 56.9256 3.76843C55.5957 3.21489 54.1313 3.06876 52.7182 3.34859C51.3051 3.62841 50.007 4.32158 48.9884 5.34019C47.9697 6.3588 47.2766 7.65696 46.9968 9.07004C46.7169 10.4831 46.863 11.9475 47.4166 13.2774C47.9701 14.6074 48.9062 15.7429 50.106 16.5402C51.3058 17.3374 52.7153 17.7604 54.1558 17.7555C55.6704 17.7515 57.1445 17.2659 58.365 16.369L64.7743 22.7783L66.4265 21.1096ZM49.0998 10.5077C49.0883 9.50926 49.3736 8.52995 49.9196 7.69398C50.4655 6.85801 51.2475 6.20306 52.1663 5.81223C53.0851 5.42141 54.0993 5.31232 55.0802 5.49881C56.061 5.68531 56.9644 6.15897 57.6757 6.85972C58.3869 7.56046 58.874 8.45669 59.0751 9.43469C59.2761 10.4127 59.1822 11.4284 58.8051 12.3529C58.428 13.2774 57.7847 14.069 56.957 14.6274C56.1292 15.1857 55.1543 15.4856 54.1558 15.489C52.8258 15.4956 51.5472 14.9753 50.5997 14.0418C49.6522 13.1084 49.1129 11.8377 49.0998 10.5077Z" fill="#575757"/>
</g>
<path d="M96.9655 25.5449C96.4161 25.5449 95.9534 25.0955 95.9534 24.5618V6.58424H91.6739C91.1245 6.58424 90.6618 6.13481 90.6618 5.6011V3.41009C90.6618 2.87638 91.1245 2.42694 91.6739 2.42694H105.38C105.929 2.42694 106.392 2.87638 106.392 3.41009V5.57301C106.392 6.10672 105.929 6.55615 105.38 6.55615H100.927V24.5337C100.927 25.0674 100.464 25.5168 99.9149 25.5168H96.9655V25.5449ZM124.725 26.1348C118.595 26.1348 115.472 23.073 115.472 17.0056C115.472 13.3258 116.599 10.6573 118.826 9.05615C120.619 7.76402 122.614 7.59548 123.655 7.59548C126.633 7.59548 131.665 8.71908 131.665 16.191C131.665 17.4269 131.376 18.5786 129.351 18.5786H120.445C120.763 20.9944 122.209 22.2022 124.725 22.2022C125.91 22.2022 127.183 21.9775 128.484 21.5C128.6 21.4719 128.715 21.4438 128.831 21.4438C129.236 21.4438 129.641 21.6966 129.785 22.0899L130.421 23.8033C130.595 24.2528 130.392 24.7584 129.959 25.0112C128.6 25.7415 126.229 26.1348 124.725 26.1348ZM123.973 11.2191C121.457 11.2191 120.734 13.2977 120.561 15.0674H127.096C126.923 12.3708 125.997 11.2191 123.973 11.2191ZM147.25 25.5449C146.701 25.5449 146.238 25.0955 146.238 24.5618V14.0842C146.238 11.7809 144.619 11.4438 143.665 11.4438C141.959 11.4438 140.629 12.0899 139.559 13.4382C139.588 13.691 139.588 13.9719 139.588 14.2809V24.5618C139.588 25.0955 139.125 25.5449 138.576 25.5449H135.713C135.164 25.5449 134.701 25.0955 134.701 24.5618V9.53368C134.701 9.28087 134.817 9.02806 134.99 8.83144C135.192 8.63481 135.453 8.55054 135.713 8.55054H137.708C138.171 8.55054 138.576 8.85953 138.691 9.30896L138.72 9.89885C139.356 9.22469 141.178 7.59548 144.388 7.59548C147.279 7.59548 151.125 8.26964 151.125 14.0842V24.5618C151.125 25.0955 150.663 25.5449 150.113 25.5449H147.25Z" fill="#5C514E"/>
<path d="M205.458 25.5449C204.909 25.5449 204.446 25.0955 204.446 24.5618V14.0843C204.446 11.7809 202.827 11.4438 201.873 11.4438C200.167 11.4438 198.837 12.0899 197.767 13.4382C197.796 13.691 197.796 13.9719 197.796 14.2809V24.5618C197.796 25.0955 197.333 25.5449 196.784 25.5449H193.921C193.372 25.5449 192.909 25.0955 192.909 24.5618V9.53371C192.909 9.2809 193.025 9.02809 193.198 8.83146C193.401 8.63483 193.661 8.55056 193.921 8.55056H195.916C196.379 8.55056 196.784 8.85955 196.899 9.30899L196.957 9.89887C197.593 9.22472 199.415 7.56741 202.625 7.56741C205.516 7.56741 209.362 8.24157 209.362 14.0562V24.5337C209.362 25.0674 208.899 25.5169 208.35 25.5169H205.458V25.5449Z" fill="#70A62D"/>
<path d="M161.911 26.1348C158.846 26.1348 153.67 24.927 153.67 16.8932C153.67 13.691 154.595 11.2472 156.417 9.58988C158.383 7.8483 160.754 7.5674 161.969 7.5674C163.704 7.5674 165.294 8.07302 166.508 9.02808V3.38201C166.508 2.8483 166.971 2.39886 167.521 2.39886H170.383C170.933 2.39886 171.395 2.8483 171.395 3.38201V24.5337C171.395 24.7865 171.28 25.0393 171.106 25.2359C170.904 25.4326 170.643 25.5168 170.383 25.5168H167.81C167.289 25.5168 166.855 25.1236 166.798 24.618L166.769 24.2528C165.872 25.1236 164.311 26.1348 161.911 26.1348ZM162.778 11.3595C160.696 11.3595 158.499 12.8202 158.499 16.8932C158.499 18.9157 159.019 22.3146 162.605 22.3146C164.195 22.3146 165.757 21.4438 166.508 20.0955V13.1011C165.67 11.9494 164.427 11.3595 162.778 11.3595Z" fill="#5C514E"/>
<path d="M241.285 25.5449C240.736 25.5449 240.273 25.0955 240.273 24.5618V14C240.273 12.3708 239.666 11.5842 238.394 11.5842C236.63 11.5842 235.676 12.5955 235.184 13.4382C235.213 13.691 235.213 13.9719 235.213 14.2809V24.5337C235.213 25.0674 234.75 25.5168 234.201 25.5168H231.28C230.731 25.5168 230.268 25.0674 230.268 24.5337V14C230.268 12.3708 229.661 11.5842 228.418 11.5842C227.03 11.5842 225.931 12.2022 225.179 13.4382C225.208 13.691 225.208 13.9719 225.208 14.2809V24.5337C225.208 25.0674 224.745 25.5168 224.196 25.5168H221.333C220.784 25.5168 220.321 25.0674 220.321 24.5337V9.53368C220.321 9.28087 220.437 9.02806 220.61 8.83144C220.813 8.63481 221.073 8.55054 221.333 8.55054H223.357C223.82 8.55054 224.254 8.85953 224.341 9.30896L224.398 9.95503C225.555 8.43818 227.29 7.62357 229.372 7.62357C231.772 7.62357 233.449 8.41009 234.374 9.95503C235.589 8.382 237.266 7.62357 239.406 7.62357C240.852 7.62357 245.247 7.62357 245.247 13.8876V24.5618C245.247 25.0955 244.784 25.5449 244.235 25.5449H241.285ZM272.515 25.9663C269.854 25.9663 266.703 24.9269 266.703 19.955V3.41009C266.703 2.87638 267.165 2.42694 267.715 2.42694H270.577C271.127 2.42694 271.589 2.87638 271.589 3.41009V19.618C271.589 21.0786 272.11 21.9213 273.035 21.9213C273.122 21.9213 273.238 21.9213 273.382 21.8932H273.498C273.903 21.8932 274.279 22.146 274.452 22.5112L275.233 24.3371C275.435 24.8427 275.204 25.4045 274.683 25.6292C274.076 25.8539 273.353 25.9663 272.515 25.9663Z" fill="#70A62D"/>
<path d="M109.139 25.545C108.59 25.545 108.127 25.0955 108.127 24.5618V9.53371C108.127 9.00001 108.59 8.55057 109.139 8.55057H112.031C112.58 8.55057 113.043 9.00001 113.043 9.53371V24.5618C113.043 25.0955 112.58 25.545 112.031 25.545H109.139Z" fill="#5C514E"/>
<path d="M213.381 25.5449C212.832 25.5449 212.369 25.0955 212.369 24.5618V9.53371C212.369 9 212.832 8.55056 213.381 8.55056H216.273C216.822 8.55056 217.285 9 217.285 9.53371V24.5618C217.285 25.0955 216.822 25.5449 216.273 25.5449H213.381ZM181.371 26.1348C177.063 26.1348 174.287 23.9719 174.287 20.6292C174.287 18.4101 175.501 14.7303 183.656 14.7303C183.916 14.7303 184.263 14.7303 185.044 14.7584V13.1854C185.044 12.6798 185.044 11.5 182.441 11.5C181.343 11.5 180.359 11.6685 179.405 12.0056C179.289 12.0337 179.174 12.0618 179.058 12.0618C178.769 12.0618 178.48 11.9494 178.306 11.7247L176.832 10.0955C176.629 9.87078 176.542 9.5618 176.6 9.25281C176.658 8.94382 176.861 8.69101 177.15 8.55056C178.422 7.93258 180.359 7.56741 182.47 7.56741C185.217 7.56741 189.844 8.26966 189.844 13.0449V24.5337C189.844 25.0674 189.381 25.5169 188.832 25.5169H186.316C185.853 25.5169 185.477 25.236 185.333 24.8146C184.003 25.7135 182.673 26.1348 181.371 26.1348ZM184.061 17.9607C180.735 17.9607 179.232 18.7191 179.232 20.3764C179.232 21.7809 180.099 22.4551 181.863 22.4551C183.251 22.4551 184.263 22.0337 185.044 21.6124V17.9888C184.581 17.9607 184.292 17.9607 184.061 17.9607ZM255.31 26.1348C251.001 26.1348 248.225 23.9719 248.225 20.6292C248.225 18.4101 249.44 14.7303 257.594 14.7303C257.854 14.7303 258.201 14.7303 258.982 14.7584V13.1854C258.982 12.6798 258.982 11.5 256.38 11.5C255.281 11.5 254.298 11.6685 253.343 12.0056C253.228 12.0337 253.112 12.0618 252.996 12.0618C252.707 12.0618 252.418 11.9494 252.245 11.7247L250.77 10.0955C250.568 9.87078 250.481 9.5618 250.539 9.25281C250.596 8.94382 250.799 8.69101 251.088 8.55056C252.36 7.93258 254.298 7.56741 256.409 7.56741C259.156 7.56741 263.782 8.26966 263.782 13.0449V24.5337C263.782 25.0674 263.319 25.5169 262.77 25.5169H260.283C259.85 25.5169 259.445 25.236 259.3 24.8146C257.941 25.7135 256.611 26.1348 255.31 26.1348ZM257.999 17.9607C254.674 17.9607 253.17 18.7191 253.17 20.3764C253.17 21.7809 254.037 22.4551 255.801 22.4551C257.189 22.4551 258.172 22.0337 258.982 21.6124V17.9888C258.519 17.9607 258.23 17.9607 257.999 17.9607Z" fill="#70A62D"/>
<path d="M110.585 7.08988C109.226 7.08988 108.098 6.05055 108.098 4.75842C108.098 3.49437 109.226 2.45505 110.585 2.45505C111.944 2.45505 113.072 3.52246 113.072 4.75842C113.072 6.02246 111.973 7.08988 110.585 7.08988Z" fill="#5C514E"/>
<path d="M214.827 7.11799C213.468 7.11799 212.34 6.07866 212.34 4.78653C212.34 3.52248 213.468 2.48315 214.827 2.48315C216.186 2.48315 217.314 3.55057 217.314 4.78653C217.314 6.07866 216.186 7.11799 214.827 7.11799Z" fill="#70A62D"/>
<path d="M315.42 15.6835C317.624 14.3415 319.062 11.9457 319.062 9.16682C319.062 4.95009 315.612 1.5 311.395 1.5C307.179 1.5 303.729 4.95009 303.729 9.16682C303.729 11.9448 305.166 14.3415 307.37 15.6835C303.537 17.1208 300.662 20.475 299.895 24.5H301.812C302.771 20.0915 306.7 16.8332 311.395 16.8332C316.091 16.8332 320.02 20.0915 320.979 24.5H322.895C322.129 20.3792 319.254 17.025 315.42 15.6835ZM305.645 9.16682C305.645 6.00438 308.233 3.41682 311.395 3.41682C314.558 3.41682 317.146 6.00438 317.146 9.16682C317.146 12.3292 314.558 14.9168 311.395 14.9168C308.233 14.9168 305.645 12.3292 305.645 9.16682Z" fill="#575757"/>
<g clip-path="url(#clip2_11_368)">
<path d="M355.02 20.4141H369.394C369.751 20.4141 370.065 20.1778 370.161 19.8287L373.355 8.54946C373.424 8.30777 373.376 8.04458 373.227 7.84048C373.078 7.63638 372.839 7.51822 372.589 7.51822H353.071L352.502 4.92401C352.416 4.56415 352.092 4.30096 351.719 4.30096H346.928C346.486 4.30096 346.129 4.66082 346.129 5.10662C346.129 5.55242 346.486 5.91228 346.928 5.91228H351.08C351.181 6.37419 353.817 18.314 353.966 19.0015C354.189 20.065 354.679 20.4141 355.02 20.4141ZM371.423 9.19399L368.718 18.7437H355.637L353.534 9.19399H371.423Z" fill="#575757"/>
<path d="M367.722 25.6885C368.896 25.6885 369.847 24.729 369.847 23.5454C369.847 22.3618 368.896 21.4024 367.722 21.4024C366.549 21.4024 365.598 22.3618 365.598 23.5454C365.598 24.729 366.549 25.6885 367.722 25.6885Z" fill="#575757"/>
<path d="M356.718 25.6885C357.891 25.6885 358.842 24.729 358.842 23.5454C358.842 22.3618 357.891 21.4024 356.718 21.4024C355.545 21.4024 354.594 22.3618 354.594 23.5454C354.594 24.729 355.545 25.6885 356.718 25.6885Z" fill="#575757"/>
</g>
<ellipse cx="371.29" cy="6.70968" rx="6.70968" ry="6.70968" fill="#CC3872"/>
<path d="M373.663 9.752C374.143 9.752 374.383 9.956 374.383 10.364C374.383 10.788 374.143 11 373.663 11H369.103C368.895 11 368.731 10.94 368.611 10.82C368.491 10.692 368.431 10.536 368.431 10.352C368.431 10.112 368.523 9.896 368.707 9.704L371.443 6.764C371.779 6.396 372.023 6.06 372.175 5.756C372.335 5.444 372.415 5.136 372.415 4.832C372.415 4.456 372.307 4.168 372.091 3.968C371.875 3.768 371.567 3.668 371.167 3.668C370.839 3.668 370.519 3.732 370.207 3.86C369.903 3.98 369.595 4.148 369.283 4.364C369.203 4.42 369.123 4.468 369.043 4.508C368.963 4.54 368.883 4.556 368.803 4.556C368.667 4.556 368.547 4.492 368.443 4.364C368.347 4.236 368.299 4.084 368.299 3.908C368.299 3.788 368.319 3.684 368.359 3.596C368.407 3.508 368.479 3.424 368.575 3.344C368.927 3.064 369.339 2.844 369.811 2.684C370.283 2.516 370.755 2.432 371.227 2.432C372.051 2.432 372.707 2.64 373.195 3.056C373.691 3.472 373.939 4.032 373.939 4.736C373.939 5.224 373.835 5.684 373.627 6.116C373.419 6.54 373.067 7.016 372.571 7.544L370.495 9.752H373.663Z" fill="white"/>
<defs>
<clipPath id="clip0_11_368">
<rect width="23.6346" height="21.22" fill="white" transform="translate(0 2.39001)"/>
</clipPath>
<clipPath id="clip1_11_368">
<rect width="19.56" height="19.56" fill="white" transform="translate(46.8682 3.22)"/>
</clipPath>
<clipPath id="clip2_11_368">
<rect width="27.2581" height="21.8065" fill="white" transform="translate(346.129 4.19354)"/>
</clipPath>
</defs>
</svg>
