<svg width="21" height="20" viewBox="0 0 21 20" fill="none" xmlns="http://www.w3.org/2000/svg">
<g clip-path="url(#clip0_1252_36)">
<path d="M20.4265 18.1096L14.0172 11.7003C14.9108 10.4843 15.3961 9.01659 15.4036 7.50765C15.4086 6.06713 14.9856 4.6576 14.1883 3.45779C13.3911 2.25799 12.2555 1.32197 10.9256 0.768427C9.59566 0.214887 8.1313 0.0687638 6.71821 0.348589C5.30512 0.628415 4.00696 1.32158 2.98835 2.34019C1.96975 3.3588 1.27658 4.65696 0.996752 6.07004C0.716927 7.48313 0.863049 8.94749 1.41659 10.2774C1.97013 11.6074 2.90615 12.7429 4.10596 13.5402C5.30576 14.3374 6.7153 14.7604 8.15582 14.7555C9.67043 14.7515 11.1445 14.2659 12.365 13.369L18.7743 19.7783L20.4265 18.1096ZM3.09977 7.50765C3.08826 6.50926 3.37359 5.52995 3.91955 4.69398C4.46552 3.85801 5.2475 3.20306 6.16629 2.81223C7.08508 2.42141 8.09926 2.31232 9.08015 2.49881C10.061 2.68531 10.9644 3.15897 11.6757 3.85972C12.3869 4.56046 12.874 5.45669 13.0751 6.43469C13.2761 7.41269 13.1822 8.42839 12.8051 9.35289C12.428 10.2774 11.7847 11.069 10.957 11.6274C10.1292 12.1857 9.15427 12.4856 8.15582 12.489C6.82575 12.4956 5.54718 11.9753 4.59969 11.0418C3.65221 10.1084 3.11292 8.83767 3.09977 7.50765Z" fill="#575757"/>
</g>
<defs>
<clipPath id="clip0_1252_36">
<rect width="19.56" height="19.56" fill="white" transform="translate(0.868164 0.220001)"/>
</clipPath>
</defs>
</svg>
